# xmcd
#
# Track frame offsets:
#	150
#	15675
#	28689
#	48291
#	78828
#	97314
#	125614
#	171375
#
# Disc length: 2400 seconds
#
# Revision: 1
# Processed by: cddbd v1.5.2PL0 Copyright (c) Steve Scherf et al.
# Submitted via: audiograbber 1.83.01
#
DISCID=64095e08
DTITLE=Bitten Blues - Electrically Recorded
DYEAR=2005
DGENRE=Blues
TTITLE0=Alice's Blues
TTITLE1=Big Ten Inch Record
TTITLE2=Alma Negra
TTITLE3=The Thrill Is Gone
TTITLE4=CAnceriano Sem LAr
TTITLE5=Hoochie Coochie Man
TTITLE6=Monday Morning Blues
TTITLE7=Data Track
EXTD=
EXTT0=
EXTT1=
EXTT2=
EXTT3=
EXTT4=
EXTT5=
EXTT6=
EXTT7=
PLAYORDER=
